<svg xmlns="http://www.w3.org/2000/svg" viewBox="0 0 64 64">
  <rect width="64" height="64" rx="14" fill="#d81b60"/>
  <!-- S -->
  <path d="M14 38.5c0 4.5 3.5 7.5 9.5 7.5 6.5 0 10-3 10-7.2 0-4.5-3.2-6-8.5-7.3-3.8-1-5.2-1.8-5.2-3.5 0-1.8 1.5-3 4.2-3 3 0 5 1.3 5.5 3.8h5.5c-.5-5-4-8.2-10.8-8.2-5.8 0-9.5 3-9.5 7.5 0 4.2 3 5.8 8.5 7.2 3.8 1 5.2 2 5.2 3.8 0 2-1.8 3.2-4.5 3.2-3.5 0-5.5-1.5-5.8-4.2H14z" fill="white"/>
  <!-- V -->
  <path d="M35 21h6l5.5 17L52 21h6L49.5 46h-6L35 21z" fill="white"/>
</svg>
